<svg width="85" height="81" viewBox="0 0 85 81" fill="none" xmlns="http://www.w3.org/2000/svg">
<path d="M42.5 0C19.1566 0 0 18.2552 0 40.5C0 59.4825 13.9777 76.726 32.5391 81V67.6009C30.6999 67.9847 29.0073 67.9958 27.1351 67.4699C24.6235 66.7636 22.5827 65.1692 21.0678 62.738C20.1022 61.1857 18.3908 59.5023 16.6055 59.6259L16.1677 54.8983C20.0282 54.5832 23.368 57.1398 25.3505 60.3137C26.2311 61.7252 27.2447 62.5527 28.5456 62.9185C29.803 63.2714 31.1532 63.102 32.7265 62.5724C33.1214 59.5709 34.5643 58.4474 35.6544 56.8654V56.8629C24.5846 55.2895 20.1728 49.6931 18.4219 45.2758C16.1016 39.4105 17.3467 32.0831 21.4497 27.4526C21.5295 27.3623 21.6735 27.1263 21.6177 26.9613C19.7364 21.5459 22.0288 17.0662 22.1132 16.5909C24.2843 17.2027 24.6371 15.9754 31.5443 19.9744L32.7382 20.6579C33.2375 20.9415 33.0806 20.7796 33.5799 20.7438C36.4638 19.9972 39.5039 19.5851 42.4994 19.548C45.5175 19.5851 48.5382 19.9972 51.5414 20.774L51.9279 20.8111C51.8941 20.8062 52.0329 20.7876 52.2657 20.6554C60.894 15.6751 60.584 17.3028 62.8979 16.586C62.9815 17.0618 65.2435 21.6145 63.3823 26.9613C63.1313 27.6979 70.8627 34.4444 66.5775 45.2739C64.8265 49.6931 60.4154 55.2895 49.3456 56.8629V56.8654C50.7645 58.9263 52.4694 60.0226 52.4603 64.2743V81C71.0223 76.726 84.9994 59.4825 84.9994 40.5C85 18.2552 65.8434 0 42.5 0V0Z" fill="black"/>
</svg>
