<svg width="150" height="80" viewBox="0 0 150 80" fill="none" xmlns="http://www.w3.org/2000/svg">
<g clip-path="url(#clip0)">
<path d="M77.4421 26.4977L84.5785 25.8353C84.7413 27.5109 85.0398 28.7578 85.5282 29.6541C86.3151 31.0569 87.4005 31.7583 88.8386 31.7583C89.8969 31.7583 90.7381 31.4076 91.3079 30.6672C91.8506 30.0827 92.1762 29.1475 92.1762 28.1733C92.1762 27.2381 91.8777 26.3419 91.3622 25.7574C90.8195 25.0559 89.5441 24.3545 87.5362 23.7311C84.2529 22.6789 81.8922 21.2761 80.5083 19.4836C79.1245 17.808 78.3376 15.3531 78.3918 12.7423C78.3918 10.9498 78.7717 9.15726 79.4772 7.6765C80.2912 6.00091 81.4038 4.67602 82.7334 3.93564C84.1715 3.03939 86.1795 2.57178 88.703 2.57178C91.7963 2.57178 94.157 3.39009 95.7851 5.06569C97.4132 6.70232 98.39 9.3521 98.6885 12.9761L91.6335 13.5606C91.4436 12.0019 91.0637 10.8718 90.4396 10.1314C89.8155 9.39107 89.0015 9.04036 87.9432 9.04036C87.0749 9.04036 86.4237 9.31313 85.9895 9.81971C85.5825 10.2873 85.3111 10.9887 85.3383 11.7681C85.3383 12.3526 85.5554 12.8981 85.881 13.2488C86.2337 13.7164 87.0749 14.1451 88.4045 14.5348C91.6878 15.5479 94.0213 16.5611 95.4595 17.6132C96.8976 18.6653 97.9287 19.9512 98.5528 21.471C99.2041 23.0296 99.5297 24.8221 99.5025 26.6536C99.5025 28.8358 99.0684 31.018 98.2001 32.8494C97.3046 34.7588 96.0564 36.2396 94.5912 37.1358C93.0445 38.11 91.0908 38.6166 88.7572 38.6166C84.6328 38.6166 81.7836 37.4865 80.1827 35.1875C78.5818 32.8884 77.6321 30.0048 77.4421 26.4977ZM1.70948 38.0321V3.19526H14.2185C16.525 3.19526 18.3158 3.46803 19.5369 4.05254C20.7308 4.59808 21.7891 5.72813 22.4946 7.24786C23.2815 8.92346 23.6614 10.8718 23.6342 12.8981C23.7156 16.3273 22.4946 19.6005 20.4052 21.3151C19.5912 21.9775 18.6957 22.4451 17.7732 22.6789C18.4515 22.9517 19.1299 23.4193 19.7268 23.9649C20.1881 24.5104 20.568 25.1339 20.9208 25.7963C21.3278 26.4588 21.6805 27.1992 21.979 27.9785L25.6151 38.071H17.0948L13.0789 27.355C12.5633 25.9912 12.1292 25.0949 11.7221 24.6663C11.1795 24.1207 10.5282 23.848 9.87699 23.848H9.22576V37.9931H1.70948V38.0321ZM9.22576 17.3014H12.4005C13.0789 17.2235 13.7301 17.0676 14.3813 16.8338C14.8698 16.7169 15.3039 16.3273 15.6024 15.7427C16.335 14.3399 16.2265 12.3526 15.331 11.1446C14.8426 10.5601 13.8929 10.2483 12.5362 10.2483H9.22576V17.3014ZM0 67.8811L7.1364 67.2186C7.2992 68.8942 7.59768 70.1412 8.08611 71.0374C8.84588 72.4403 9.95839 73.1806 11.3965 73.1806C12.4548 73.1806 13.2959 72.8299 13.8658 72.0896C14.4085 71.4661 14.7341 70.5698 14.7341 69.5957C14.7341 68.6604 14.4356 67.7642 13.92 67.1797C13.3774 66.4783 12.102 65.7768 10.0669 65.1534C6.78365 64.1012 4.42294 62.6984 3.03907 60.9059C1.65521 59.2303 0.868307 56.7754 0.922576 54.1646C0.922576 52.3721 1.30246 50.5796 2.00796 49.0988C2.822 47.4232 3.93452 46.0983 5.26411 45.3579C6.70224 44.4617 8.7102 43.9941 11.2337 43.9941C14.3271 43.9941 16.6878 44.8124 18.3158 46.488C19.9439 48.1636 20.8936 50.7744 21.1921 54.3984L14.1371 54.9829C13.9472 53.4242 13.5673 52.2941 12.9432 51.5538C12.3462 50.8134 11.5051 50.4627 10.4468 50.5016C9.57851 50.5016 8.92728 50.7744 8.49313 51.32C8.05897 51.7876 7.81476 52.489 7.8419 53.2683C7.8419 53.8528 8.05897 54.3984 8.38459 54.7491C8.73734 55.2167 9.57851 55.6453 10.9081 56.035C14.1914 57.0482 16.525 58.0613 17.9631 59.1134C19.4012 60.1655 20.4323 61.4515 21.0564 62.9712C21.7077 64.5299 22.0333 66.3224 22.0333 68.1149C22.0333 70.2971 21.572 72.4403 20.7308 74.2717C19.8354 76.1811 18.5872 77.6619 17.1219 78.5581C15.5753 79.5323 13.6216 80.0389 11.288 80.0389C7.16353 80.0389 4.3144 78.9089 2.71346 76.6098C1.11252 74.2717 0.217077 71.3881 0 67.8811H0Z" fill="black"/>
<path d="M36.089 65.1534L42.6555 67.998C42.3028 70.375 41.5702 72.6351 40.5662 74.6225C39.6436 76.376 38.4226 77.7399 37.0387 78.6361C35.6277 79.5324 33.8368 80 31.666 80C29.034 80 26.8632 79.4544 25.208 78.3634C23.5257 77.2723 22.0875 75.3239 20.8665 72.5572C19.6454 69.7905 19.0485 66.2445 19.0485 61.9191C19.0485 56.152 20.1067 51.7097 22.2503 48.6313C24.394 45.5528 27.4059 43.9941 31.3133 43.9941C34.3795 43.9941 36.7673 44.8904 38.5311 46.6439C40.2677 48.4364 41.5702 51.1641 42.4385 54.8271L35.8176 56.9313C35.6548 56.113 35.4106 55.2947 35.085 54.5933C34.678 53.7749 34.1624 53.1515 33.5383 52.6839C32.9142 52.2163 32.2087 52.0214 31.5032 52.0214C29.7938 52.0214 28.4913 52.9956 27.5959 54.9829C26.9175 56.4247 26.5647 58.7238 26.5647 61.8412C26.5647 65.699 26.9718 68.3487 27.7858 69.7905C28.5998 71.2323 29.7395 71.9337 31.2319 71.9337C32.67 71.9337 33.7554 71.3492 34.488 70.2192C35.2207 69.0112 35.7634 67.3356 36.089 65.1534ZM51.42 44.5787H58.9092V56.7754H67.1038V44.5787H74.6472V79.4155H67.1038V65.3093H58.9092V79.4155H51.42V44.5787V44.5787Z" fill="black"/>
<path d="M73.6161 61.997C73.6161 56.3077 74.7287 51.8655 76.9266 48.7091C79.1245 45.5527 82.2178 43.9551 86.1523 43.9551C90.1954 43.9551 93.2887 45.5138 95.4866 48.6312C97.6845 51.7485 98.7699 56.1129 98.7699 61.7242C98.7699 65.8158 98.2815 69.128 97.3318 71.7388C96.4092 74.3107 94.9711 76.4149 93.2073 77.8177C91.3893 79.2595 89.1371 79.9999 86.4508 79.9999C83.7102 79.9999 81.4581 79.3764 79.6672 78.1295C77.822 76.8046 76.3025 74.7393 75.2985 72.2064C74.186 69.4787 73.6161 66.0885 73.6161 61.997ZM81.1053 62.0359C81.1053 65.543 81.5666 68.0759 82.462 69.6346C83.3575 71.1543 84.6057 71.9336 86.1795 71.9336C87.7804 71.9336 89.0286 71.1933 89.924 69.6735C90.8195 68.1538 91.2536 65.4651 91.2536 61.5683C91.2536 58.2951 90.7924 55.8791 89.8698 54.3983C88.9472 52.8786 87.699 52.1382 86.1252 52.1382C84.7413 52.0603 83.4117 52.9176 82.4892 54.4373C81.5666 55.957 81.1053 58.4899 81.1053 62.0359V62.0359ZM106.449 61.997C106.449 56.3077 107.562 51.8655 109.759 48.7091C111.957 45.5527 115.051 43.9551 118.985 43.9551C123.028 43.9551 126.149 45.5138 128.319 48.6312C130.49 51.7485 131.603 56.1129 131.603 61.7242C131.603 65.8158 131.114 69.128 130.165 71.7388C129.242 74.3107 127.804 76.4149 126.04 77.8177C124.222 79.2595 121.97 79.9999 119.284 79.9999C116.543 79.9999 114.291 79.3764 112.5 78.1295C110.655 76.8046 109.135 74.7393 108.131 72.2064C107.019 69.4787 106.449 66.0885 106.449 61.997V61.997ZM113.938 62.0359C113.938 65.543 114.399 68.0759 115.295 69.6346C116.19 71.1543 117.439 71.9336 119.012 71.9336C120.613 71.9336 121.861 71.1933 122.757 69.6735C123.652 68.1538 124.086 65.4651 124.086 61.5683C124.086 58.2951 123.625 55.8791 122.703 54.3983C121.78 52.8786 120.532 52.1382 118.958 52.1382C117.574 52.0603 116.217 52.9176 115.322 54.4373C114.399 55.957 113.938 58.4899 113.938 62.0359V62.0359Z" fill="black"/>
<path d="M130.816 44.5786H138.305V70.8426H150V79.4155H130.789V44.5786H130.816Z" fill="black"/>
<path d="M122.561 42.5681C130.101 34.4084 132.426 20.5763 127.754 11.6732C123.083 2.77024 113.183 2.16772 105.643 10.3275C98.1029 18.4873 95.7779 32.3194 100.45 41.2224C105.122 50.1254 115.021 50.7279 122.561 42.5681Z" fill="white"/>
<path d="M122.561 42.5681C130.101 34.4084 132.426 20.5763 127.754 11.6732C123.083 2.77024 113.183 2.16772 105.643 10.3275C98.1029 18.4873 95.7779 32.3194 100.45 41.2224C105.122 50.1254 115.021 50.7279 122.561 42.5681Z" fill="white"/>
<path d="M122.561 42.5681C130.101 34.4084 132.426 20.5763 127.754 11.6732C123.083 2.77024 113.183 2.16772 105.643 10.3275C98.1029 18.4873 95.7779 32.3194 100.45 41.2224C105.122 50.1254 115.021 50.7279 122.561 42.5681Z" stroke="black" stroke-width="4" stroke-miterlimit="10"/>
<path d="M106.476 23.8871L109.19 21.1594L112.527 27.9787C113.097 29.0697 113.531 30.2388 113.857 31.5247C114.047 32.4989 113.992 33.551 113.721 34.4862C113.368 35.6552 112.798 36.6294 112.039 37.3308C111.143 38.2271 110.384 38.7336 109.732 38.8895C109.108 39.0454 108.457 38.8895 107.86 38.4998C107.209 38.0322 106.639 37.3698 106.205 36.5125L108.538 33.3951C108.728 33.8238 108.973 34.2134 109.244 34.5252C109.434 34.72 109.651 34.8369 109.895 34.8369C110.085 34.8369 110.275 34.72 110.411 34.5641C110.682 34.3303 110.872 33.8627 110.845 33.3951C110.763 32.7327 110.573 32.0702 110.275 31.5636L106.476 23.8871V23.8871ZM114.616 28.2125L117.086 25.4068C117.357 25.8744 117.71 26.2251 118.09 26.42C118.632 26.6538 119.202 26.4979 119.664 25.9913C119.989 25.6796 120.26 25.2509 120.369 24.7054C120.532 24.004 120.26 23.2246 119.772 22.9908C119.691 22.9519 119.609 22.9129 119.528 22.9129C119.202 22.8739 118.632 23.0688 117.791 23.5753C116.407 24.3937 115.322 24.7054 114.508 24.5885C113.721 24.4716 112.988 23.8871 112.554 22.9129C112.229 22.2504 112.066 21.4711 112.039 20.6918C112.039 19.7955 112.202 18.8993 112.554 18.1589C113.07 17.1068 113.694 16.2105 114.454 15.5091C115.593 14.379 116.597 13.8335 117.466 13.8335C118.334 13.8335 119.148 14.418 119.908 15.626L117.466 18.3927C116.977 17.4964 116.055 17.3016 115.431 18.003L115.349 18.1199C115.078 18.3537 114.888 18.7044 114.779 19.1331C114.698 19.4448 114.752 19.7955 114.888 20.0683C114.996 20.2631 115.159 20.419 115.349 20.419C115.566 20.4579 115.946 20.3021 116.489 19.9514C117.846 19.1331 118.877 18.6654 119.582 18.5096C120.179 18.3537 120.803 18.4316 121.373 18.7824C121.889 19.0941 122.323 19.6396 122.621 20.3021C123.001 21.0814 123.218 22.0166 123.245 22.9908C123.272 24.004 123.082 24.9782 122.703 25.8354C122.214 26.8876 121.59 27.7838 120.857 28.4852C119.365 29.966 118.144 30.5895 117.167 30.3557C116.109 30.1219 115.241 29.3425 114.616 28.2125V28.2125Z" fill="black"/>
</g>
<defs>
<clipPath id="clip0">
<rect width="150" height="80" fill="white"/>
</clipPath>
</defs>
</svg>
